<svg xmlns="http://www.w3.org/2000/svg" version="1.1" xmlns:xlink="http://www.w3.org/1999/xlink" xmlns:svgjs="http://svgjs.dev/svgjs" width="1440" height="560" preserveAspectRatio="none" viewBox="0 0 1440 560"><g mask="url(&quot;#SvgjsMask1022&quot;)" fill="none"><rect width="1440" height="560" x="0" y="0" fill="rgba(99, 135, 227, 1)"></rect><path d="M1536 560L0 560 L0 377.59Q51.33 308.92, 120 360.25Q120.24 288.49, 192 288.73Q257.27 234, 312 299.27Q408.81 276.08, 432 372.89Q460.38 281.26, 552 309.64Q575.13 260.76, 624 283.89Q667.66 255.55, 696 299.21Q738.1 269.31, 768 311.41Q833.93 257.35, 888 323.28Q934.91 298.19, 960 345.1Q997.52 262.63, 1080 300.15Q1124.11 272.26, 1152 316.37Q1215.56 307.93, 1224 371.48Q1239.36 314.84, 1296 330.19Q1333.08 247.27, 1416 284.35Q1488.28 236.63, 1536 308.91z" fill="rgba(52, 96, 150, 1)"></path><path d="M1512 560L0 560 L0 427.62Q43.51 351.13, 120 394.65Q138.99 341.63, 192 360.62Q275.89 324.51, 312 408.41Q355.56 331.98, 432 375.54Q473.33 344.87, 504 386.2Q547.72 357.92, 576 401.64Q657.78 363.42, 696 445.2Q714.56 343.75, 816 362.31Q859.76 334.07, 888 377.84Q978.63 348.48, 1008 439.11Q1021.44 380.55, 1080 393.99Q1156.11 350.1, 1200 426.21Q1230.41 336.63, 1320 367.04Q1373.56 300.6, 1440 354.16Q1509.05 351.21, 1512 420.26z" fill="rgba(26, 57, 110, 1)"></path><path d="M1488 560L0 560 L0 471.32Q40.9 392.22, 120 433.11Q164.49 405.6, 192 450.08Q261.37 447.45, 264 516.82Q277.6 410.42, 384 424.02Q451.9 371.92, 504 439.83Q601.64 417.48, 624 515.12Q649.56 468.69, 696 494.25Q722.91 401.16, 816 428.07Q888.12 380.19, 936 452.31Q989.27 385.58, 1056 438.85Q1137.58 400.43, 1176 482.01Q1226.05 412.06, 1296 462.1Q1325.11 419.21, 1368 448.32Q1416.14 376.46, 1488 424.6z" fill="rgba(22, 34, 58, 1)"></path><path d="M1536 560L0 560 L0 490.63Q51.6 470.23, 72 521.82Q145.56 475.38, 192 548.94Q208.56 493.5, 264 510.07Q312.85 486.92, 336 535.78Q416.88 496.65, 456 577.53Q483.76 533.29, 528 561.06Q561.82 474.88, 648 508.7Q692.37 481.07, 720 525.44Q788.46 473.9, 840 542.36Q884.73 515.09, 912 559.81Q931.88 507.69, 984 527.58Q1001.98 473.56, 1056 491.54Q1126.11 441.64, 1176 511.75Q1263.72 479.48, 1296 567.2Q1361.34 512.54, 1416 577.87Q1454.62 496.49, 1536 535.11z" fill="rgba(0, 0, 0, 1)"></path></g><defs><mask id="SvgjsMask1022"><rect width="1440" height="560" fill="#ffffff"></rect></mask></defs></svg>