<svg xmlns="http://www.w3.org/2000/svg" version="1.1" xmlns:xlink="http://www.w3.org/1999/xlink" xmlns:svgjs="http://svgjs.dev/svgjs" width="1440" height="900" preserveAspectRatio="none" viewBox="0 0 1440 900"><g mask="url(&quot;#SvgjsMask1122&quot;)" fill="none"><rect width="1440" height="900" x="0" y="0" fill="url(&quot;#SvgjsLinearGradient1123&quot;)"></rect><path d="M1488 900L0 900 L0 478.15Q80.25 486.4, 72 566.66Q117.25 539.9, 144 585.15Q186.16 555.31, 216 597.46Q217.23 478.69, 336 479.92Q382.28 406.2, 456 452.47Q522.31 398.78, 576 465.09Q698.88 467.97, 696 590.85Q695.97 518.82, 768 518.78Q795.2 425.98, 888 453.18Q956.84 402.02, 1008 470.87Q1053.88 396.75, 1128 442.64Q1225.37 420, 1248 517.37Q1279.92 429.3, 1368 461.22Q1436.47 409.7, 1488 478.17z" fill="rgba(29, 84, 150, 1)"></path><path d="M1512 900L0 900 L0 684.04Q41.63 653.67, 72 695.31Q77.14 580.45, 192 585.6Q258.49 532.09, 312 598.58Q424.59 591.17, 432 703.77Q442.12 641.88, 504 652Q530.99 558.99, 624 585.97Q701.74 543.71, 744 621.44Q771.05 576.5, 816 603.55Q862.96 530.5, 936 577.46Q992.48 561.94, 1008 618.42Q1085.88 624.29, 1080 702.17Q1077.84 580.01, 1200 577.85Q1264.37 522.22, 1320 586.58Q1429.9 576.49, 1440 686.39Q1445.02 619.41, 1512 624.43z" fill="rgba(37, 72, 132, 1)"></path><path d="M1464 900L0 900 L0 739.18Q70.35 737.53, 72 807.88Q120.78 736.66, 192 785.45Q191.91 713.36, 264 713.27Q294.64 671.91, 336 702.55Q402.22 696.77, 408 762.99Q459.96 694.95, 528 746.91Q550.07 648.98, 648 671.05Q716.07 619.12, 768 687.19Q862.97 662.16, 888 757.14Q918.03 715.17, 960 745.21Q1005.95 671.16, 1080 717.12Q1171.38 688.5, 1200 779.89Q1213.63 673.51, 1320 687.14Q1395.95 691.1, 1392 767.05Q1444.74 747.79, 1464 800.54z" fill="rgba(22, 34, 58, 1)"></path><path d="M1488 900L0 900 L0 836.64Q79.63 844.26, 72 923.89Q70.61 802.5, 192 801.11Q244.35 733.46, 312 785.81Q378.42 780.23, 384 846.66Q454.81 845.47, 456 916.28Q470.12 858.39, 528 872.51Q549.16 821.67, 600 842.84Q683.86 806.7, 720 890.56Q806.34 856.89, 840 943.23Q882.49 865.72, 960 908.21Q936.28 812.49, 1032 788.77Q1102.92 739.69, 1152 810.61Q1250.59 837.2, 1224 935.79Q1214.32 854.11, 1296 844.43Q1303.35 779.78, 1368 787.13Q1436.19 735.32, 1488 803.51z" fill="rgba(0, 0, 0, 1)"></path></g><defs><mask id="SvgjsMask1122"><rect width="1440" height="900" fill="#ffffff"></rect></mask><linearGradient x1="9.37%" y1="-15%" x2="90.63%" y2="115%" gradientUnits="userSpaceOnUse" id="SvgjsLinearGradient1123"><stop stop-color="#0e2a47" offset="0"></stop><stop stop-color="#00459e" offset="1"></stop></linearGradient></defs></svg>